<svg width="34" height="34" viewBox="0 0 34 34" fill="none" xmlns="http://www.w3.org/2000/svg">
<path fill-rule="evenodd" clip-rule="evenodd" d="M13.9999 0C6.26799 0 0 6.26799 0 13.9999C0 21.7319 6.26799 27.9999 13.9999 27.9999C17.1446 27.9999 20.0471 26.9631 22.3842 25.2127L30.5858 33.4142C31.3668 34.1953 32.6332 34.1953 33.4142 33.4142C34.1953 32.6332 34.1953 31.3668 33.4142 30.5858L25.2127 22.3842C26.9631 20.0471 27.9999 17.1446 27.9999 13.9999C27.9999 6.26799 21.7319 0 13.9999 0ZM3.99998 13.9999C3.99998 8.47711 8.47711 3.99998 13.9999 3.99998C19.5228 3.99998 23.9999 8.47711 23.9999 13.9999C23.9999 19.5228 19.5228 23.9999 13.9999 23.9999C8.47711 23.9999 3.99998 19.5228 3.99998 13.9999Z" fill="#3F3F46"/>
</svg>
